<?xml version="1.0" encoding="utf-8"?>
<svg xmlns="http://www.w3.org/2000/svg" version="1.1" width="1000.000000" height="800.000000">
<style> svg {    background-image: url(./lib/back.png); background-size: cover; background-repeat: no-repeat;width:1000.000000px ;height:800.000000px;} </style><line x1="40.000000" x2="490.000000" y1="40.000000" y2="40.000000" style="stroke:#6;stroke-width:1" />
<text x="490.000000" y="40.000000" font-family="Comic Sans MS" font-size="40" fill="red">ENSIAS 2022</text><line x1="490.000000" x2="490.000001" y1="40.000000" y2="60.000000" style="stroke:#6;stroke-width:1" />
<line x1="490.000001" x2="760.000001" y1="60.000000" y2="60.000000" style="stroke:rgb(0,0,0);stroke-width:3" />
<line x1="760.000001" x2="760.000002" y1="60.000000" y2="110.000000" style="stroke:#6;stroke-width:3" />
<line x1="760.000002" x2="360.000002" y1="110.000000" y2="110.000021" style="stroke:#6;stroke-width:3" />
<text x="360.000002" y="110.000021" font-family="Comic Sans MS" font-size="20" fill="black">KINDER: MEILLEUR LANGUAGE POUR VOTRE ENFANT</text><line x1="360.000002" x2="360.000003" y1="110.000021" y2="160.000021" style="stroke:#6;stroke-width:3" />
<line x1="360.000003" x2="760.000003" y1="160.000021" y2="160.000021" style="stroke:#6;stroke-width:3" />
<line x1="760.000003" x2="840.000003" y1="160.000021" y2="160.000021" style="stroke:rgb(255,0,0);stroke-width:3" />
<line x1="840.000003" x2="840.000005" y1="160.000021" y2="240.000021" style="stroke:rgb(255,0,0);stroke-width:3" />
<line x1="840.000005" x2="760.000005" y1="240.000021" y2="240.000026" style="stroke:rgb(255,0,0);stroke-width:3" />
<line x1="760.000005" x2="759.999999" y1="240.000026" y2="160.000026" style="stroke:rgb(255,0,0);stroke-width:3" />
<line x1="759.999999" x2="659.999999" y1="160.000026" y2="160.000042" style="stroke:#6;stroke-width:3" />
<line x1="659.999999" x2="660.000004" y1="160.000042" y2="200.000042" style="stroke:#6;stroke-width:3" />
<circle cx="660.000004" cy="200.000042" r="40" fill="red"/>
<line x1="660.000004" x2="510.000004" y1="200.000042" y2="200.000066" style="stroke:#6;stroke-width:3" />
<line x1="510.000004" x2="510.000001" y1="200.000066" y2="180.000066" style="stroke:#6;stroke-width:3" />
<rect x="510.000001" y="180.000066"  width="60" height="40" fill="#2F3049"/>
<line x1="510.000001" x2="430.000001" y1="180.000066" y2="180.000079" style="stroke:#6;stroke-width:3" />
<line x1="430.000001" x2="430.000003" y1="180.000079" y2="200.000079" style="stroke:#6;stroke-width:3" />
<ellipse cx="430.000003" cy="200.000079"  rx="20" ry="30" fill="yellow"/>
</svg>